<svg version="1.1" xmlns="http://www.w3.org/2000/svg"  x="0px" y="0px" viewBox="1.2 6.7 96.6 89.5" enable-background="new 1.2 6.7 96.6 89.5" xml:space="preserve">
							<path d="M11.8,53.2v40.2c0,0.7,0.3,1.5,0.8,2s1.2,0.8,2,0.8h22.5V66.7c0-0.7,0.3-1.5,0.8-2c0.5-0.5,1.2-0.8,2-0.8H59
								c0.7,0,1.5,0.3,2,0.8c0.5,0.5,0.8,1.2,0.8,2v29.5h22.5c0.7,0,1.4-0.3,2-0.8c0.5-0.5,0.8-1.2,0.8-2V53.1L49,23.5L11.8,53.2z"></path>
							<path d="M95.5,40.7L52.8,7.9c-2-1.5-4.8-1.5-6.8,0L23.2,25.5v-8.9H12v17.5l-8.7,6.7c-2.4,1.9-2.9,5.4-1,7.8c1.1,1.4,2.8,2.2,4.4,2.2
								c0.6,0,1.2-0.1,1.8-0.3l39.2-31.2c0.8-0.6,1.8-0.6,2.6,0l40.1,31.2c2.2,0.7,4.7,0,6.2-1.9C98.5,46.1,98,42.6,95.5,40.7z"></path>
						</svg>
